<svg xmlns="http://www.w3.org/2000/svg" version="1.1" xmlns:xlink="http://www.w3.org/1999/xlink" width="24" height="24" x="0" y="0" viewBox="0 0 512 512" style="enable-background:new 0 0 512 512" xml:space="preserve" class=""><g><path d="M449.798 31.115C443.931 13.078 426.968 0 407 0c-19.555 0-36.228 12.542-42.42 30h-66.16C292.228 12.542 275.555 0 256 0s-36.228 12.542-42.42 30h-66.16C141.228 12.542 124.555 0 105 0 85.032 0 68.069 13.078 62.202 31.115 26.926 37.208 0 68.009 0 105v362c0 24.813 20.187 45 45 45h422c24.813 0 45-20.187 45-45V105c0-36.991-26.926-67.792-62.202-73.885zM392 45c0-8.271 6.729-15 15-15s15 6.729 15 15v30c0 8.271-6.729 15-15 15s-15-6.729-15-15V45zm-151 0c0-8.271 6.729-15 15-15s15 6.729 15 15v30c0 8.271-6.729 15-15 15s-15-6.729-15-15V45zM90 45c0-8.271 6.729-15 15-15s15 6.729 15 15v30c0 8.271-6.729 15-15 15s-15-6.729-15-15V45zm392 422c0 8.271-6.729 15-15 15H45c-8.271 0-15-6.729-15-15V181h452v286zm0-316H30v-46c0-19.555 12.541-36.228 30-42.42V75c0 24.813 20.187 45 45 45s45-20.187 45-45V60h61v15c0 24.813 20.187 45 45 45s45-20.187 45-45V60h61v15c0 24.813 20.187 45 45 45s45-20.187 45-45V62.58c17.459 6.192 30 22.865 30 42.42v46z" fill="#ffffff" opacity="1" data-original="#000000" class=""></path><path d="m199.346 303.868 37.261-37.261C246.014 257.199 239.355 241 226 241h-90c-8.284 0-15 6.716-15 15s6.716 15 15 15h53.787l-34.393 34.394C145.986 314.801 152.645 331 166 331h15c16.542 0 30 13.458 30 30s-13.458 30-30 30-30-13.458-30-30c0-8.284-6.716-15-15-15s-15 6.716-15 15c0 33.084 26.916 60 60 60s60-26.916 60-60c0-26.689-17.515-49.363-41.654-57.132zM406 391h-45V256c0-13.302-16.165-20.051-25.606-10.606l-60 60c-5.858 5.858-5.858 15.355 0 21.213 5.857 5.858 15.355 5.858 21.213 0L331 292.213V391h-45c-8.284 0-15 6.716-15 15s6.716 15 15 15h120c8.284 0 15-6.716 15-15s-6.716-15-15-15z" fill="#ffffff" opacity="1" data-original="#000000" class=""></path></g></svg>