<svg xmlns="http://www.w3.org/2000/svg" version="1.1" xmlns:xlink="http://www.w3.org/1999/xlink" width="20" height="20" x="0" y="0" viewBox="0 0 512 512" style="enable-background:new 0 0 512 512" xml:space="preserve" class=""><g><path fill="#bdc3c7" d="M494.344 353.102H375.879l10.86-6.266 91.718-52.965a17.666 17.666 0 0 0 6.531-24.101L423.195 162.78a17.657 17.657 0 0 0-24.188-6.445L307.29 209.3l-11.23 6.48.37-.21 6.27-10.86 52.965-91.719a17.657 17.657 0 0 0-6.445-24.187L242.23 27.012a17.666 17.666 0 0 0-24.102 6.531l-52.964 91.719-6.266 10.86V17.655C158.868 7.918 150.98.027 141.242 0H17.656C7.918.027.027 7.918 0 17.656v476.688c.027 9.738 7.918 17.629 17.656 17.656h476.688c9.738-.027 17.629-7.918 17.656-17.656V370.758c-.027-9.738-7.918-17.625-17.656-17.656zm0 0" opacity="1" data-original="#bdc3c7"></path><path fill="#4fba6f" d="M158.898 17.656v105.93H0V17.656C.027 7.918 7.918.027 17.656 0h123.586c9.738.027 17.625 7.918 17.656 17.656zm0 0" opacity="1" data-original="#4fba6f"></path><path fill="#24ae5f" d="M158.898 123.586v12.535l-5.21 111.05H0V123.587zm0 0" opacity="1" data-original="#24ae5f"></path><path fill="#4c8056" d="M153.688 247.172 141.242 512H17.656C7.918 511.973.027 504.082 0 494.344V247.172zm0 0" opacity="1" data-original="#4c8056"></path><path fill="#3d324c" d="M247.703 353.102H58.262l142.035-82.008zm0 0" opacity="1" data-original="#3d324c"></path><path fill="#894b9d" d="m386.738 346.836-10.86 6.266H247.704l-47.406-82.008L307.289 209.3zm0 0" opacity="1" data-original="#894b9d"></path><path fill="#955ba5" d="m478.457 293.871-91.719 52.965L307.29 209.3l91.719-52.965a17.657 17.657 0 0 1 24.187 6.445l61.793 106.989a17.666 17.666 0 0 1-6.531 24.102zm0 0" opacity="1" data-original="#955ba5" class=""></path><path fill="#3b97d3" d="M355.664 112.992 302.7 204.711l-137.535-79.45 52.965-91.718a17.666 17.666 0 0 1 24.101-6.531L349.22 88.805a17.657 17.657 0 0 1 6.445 24.188zm0 0" opacity="1" data-original="#3b97d3"></path><path fill="#2980ba" d="m302.7 204.71-6.27 10.86-110.52 64.793-.441-.707-82.098-47.402 55.527-96.133 6.266-10.86zm0 0" opacity="1" data-original="#2980ba"></path><path fill="#285680" d="M185.91 280.363 61.793 353.102h-28.16l69.738-120.848 82.098 47.402zm0 0" opacity="1" data-original="#285680"></path><path fill="#bdc3c7" d="M141.242 353.102V512H17.656C7.918 511.973.027 504.082 0 494.344V370.758c.027-9.738 7.918-17.625 17.656-17.656zm0 0" opacity="1" data-original="#bdc3c7"></path><path fill="#e57e25" d="M141.242 353.102h123.586V512H141.242zm0 0" opacity="1" data-original="#e57e25"></path><path fill="#f29c1f" d="M264.828 353.102h123.586V512H264.828zm0 0" opacity="1" data-original="#f29c1f"></path><path fill="#f0c419" d="M512 370.758v123.586c-.027 9.738-7.918 17.629-17.656 17.656h-105.93V353.102h105.93c9.738.03 17.629 7.918 17.656 17.656zm0 0" opacity="1" data-original="#f0c419"></path><path fill="#35495e" d="M105.93 432.55c0 14.63-11.856 26.485-26.48 26.485-14.63 0-26.485-11.855-26.485-26.484 0-14.625 11.855-26.48 26.484-26.48 14.625 0 26.48 11.855 26.48 26.48zm0 0" opacity="1" data-original="#35495e"></path></g></svg>