<svg xmlns="http://www.w3.org/2000/svg" version="1.1" xmlns:xlink="http://www.w3.org/1999/xlink" width="20" height="20" x="0" y="0" viewBox="0 0 48 48" style="enable-background:new 0 0 512 512" xml:space="preserve" class=""><g><circle cx="24" cy="24" r="24" fill="#40596b" opacity="1" data-original="#f2f2f2" class=""></circle><path fill="#f8b64c" d="M45.1 24h-8.2c0-2.4-.6-4.5-1.7-6.5s-2.8-3.6-4.7-4.7l4.1-7.1c3.2 1.9 5.9 4.5 7.7 7.7 1.7 3.2 2.8 6.8 2.8 10.6z" opacity="1" data-original="#f8b64c" class=""></path><path fill="#ff7058" d="M45.1 24c0 3.8-1 7.4-2.8 10.5-1.8 3.2-4.5 5.9-7.7 7.7l-4.1-7.1c2-1.1 3.6-2.8 4.7-4.7s1.7-4.1 1.7-6.5h8.2z" opacity="1" data-original="#ff7058" class=""></path><path fill="#54c0eb" d="M17.5 12.8c-2 1.1-3.6 2.8-4.7 4.7s-1.7 4.1-1.7 6.5H2.9c0-3.8 1-7.4 2.8-10.5 1.8-3.2 4.5-5.9 7.7-7.7z" opacity="1" data-original="#54c0eb" class=""></path><path fill="#84dbff" d="m17.5 35.2-4.1 7.1c-3.2-1.8-5.9-4.5-7.7-7.7C4 31.4 2.9 27.8 2.9 24h8.2c0 2.4.6 4.6 1.7 6.5 1.2 1.9 2.8 3.5 4.7 4.7z" opacity="1" data-original="#84dbff" class=""></path><path fill="#ffd15c" d="m34.5 5.8-4.1 7.1c-1.9-1.1-4.1-1.7-6.5-1.7s-4.5.6-6.5 1.7l-4.1-7.1C16.6 4 20.2 2.9 24 2.9S31.4 4 34.5 5.8z" opacity="1" data-original="#ffd15c" class=""></path><circle cx="24" cy="24" r="12.9" fill="#40596b" opacity="1" data-original="#f2f2f2" class=""></circle><path fill="#f2f2f2" d="M25.6 21.6c1.2.9 1.5 2.6.7 3.8-.9 1.2-2.6 1.5-3.8.7-1.2-.9-8.2-9-8.2-9s10 3.6 11.3 4.5z" opacity="1" data-original="#40596b" class=""></path><circle cx="24" cy="23.8" r="1.6" fill="#ff7058" opacity="1" data-original="#ff7058" class=""></circle><path fill="#000000" d="M24 4.9c11.3 0 20.5 8.9 21 20.1 0-.3.1-.7.1-1 0-11.6-9.4-21.1-21.1-21.1S2.9 12.4 2.9 24c0 .3 0 .7.1 1 .5-11.2 9.7-20.1 21-20.1z" opacity="0" data-original="#40596b15" class=""></path></g></svg>