<svg xmlns="http://www.w3.org/2000/svg" version="1.1" xmlns:xlink="http://www.w3.org/1999/xlink" width="20" height="20" x="0" y="0" viewBox="0 0 464.003 464.003" style="enable-background:new 0 0 512 512" xml:space="preserve" class=""><g><path fill="#facf5f" d="M307.973 13.81c52.52 93.87 169.27 204.69 100.94 314.07-56.59 90.59-192.48 90.58-249.07 0-68.33-109.39 48.44-220.23 100.96-314.09 10.31-18.42 36.88-18.36 47.17.02z" opacity="1" data-original="#facf5f"></path><path fill="#fada86" d="M312.973 22.48c-4.89 2.24-9.2 6.01-12.17 11.31-52.52 93.86-169.29 204.7-100.96 314.09 10.39 16.63 23.45 30.2 38.2 40.72-31.03-9.94-59.12-30.18-78.2-60.72-68.33-109.39 48.44-220.23 100.96-314.09 10.31-18.42 36.88-18.36 47.17.02 1.61 2.87 3.28 5.76 5 8.67z" opacity="1" data-original="#fada86"></path><path fill="#ffe773" d="M219.343 45.53c-11.26-20.13-40.37-20.21-51.66-.02-57.53 102.82-185.46 224.24-110.6 344.07 61.99 99.23 210.85 99.23 272.84 0 74.85-119.82-53.04-241.22-110.58-344.05z" opacity="1" data-original="#ffe773" class=""></path><path fill="#fff0a6" d="M227.683 75.51c-57.53 102.82-185.46 224.24-110.6 344.07 9.65 15.44 21.39 28.48 34.59 39.11-37.49-9.71-71.87-32.74-94.59-69.11-74.86-119.83 53.07-241.25 110.6-344.07 11.29-20.19 40.4-20.11 51.66.02 4.23 7.56 8.84 15.22 13.73 22.98-2.06 1.97-3.88 4.31-5.39 7z" opacity="1" data-original="#fff0a6" class=""></path><path fill="#fff8d6" d="M179.413 376.51c20.83 14.21 4.96 46.83-19.06 39.18-46.57-14.83-83.65-59.54-77.98-135.74 1.94-26.05 40.11-26.47 42.55-.24 4.1 44.04 25.34 76.93 54.49 96.8z" opacity="1" data-original="#fff8d6"></path></g></svg>